<?xml version="1.0" encoding="UTF-8" standalone="no" ?>
<!DOCTYPE svg PUBLIC "-//W3C//DTD SVG 1.1//EN" "http://www.w3.org/Graphics/SVG/1.1/DTD/svg11.dtd">
<svg xmlns="http://www.w3.org/2000/svg" xmlns:xlink="http://www.w3.org/1999/xlink" version="1.1" width="16" height="16" viewBox="0 0 16 16" xml:space="preserve">
<desc>Created with Fabric.js 4.6.0</desc>
<defs>
</defs>
<g transform="matrix(-0.06 0 0 -0.06 2.57 7.73)" id="cc22GDGww5r7sRf72B-cy"  >
<path style="stroke: none; stroke-width: 0; stroke-dasharray: none; stroke-linecap: butt; stroke-dashoffset: 0; stroke-linejoin: miter; stroke-miterlimit: 4; fill: rgb(0,0,0); fill-rule: nonzero; opacity: 0.5;" vector-effect="non-scaling-stroke"  transform=" translate(-40, -40)" d="M 0 0 L 80 80 L 0 80 L 0 0 z" stroke-linecap="round" />
</g>
<g transform="matrix(3.59 0 0 3.66 8 7.73)" id="FmSkLG3qF2iIK_aTHeDq5"  >
<path style="stroke: rgb(238,54,56); stroke-width: 0; stroke-dasharray: none; stroke-linecap: butt; stroke-dashoffset: 0; stroke-linejoin: miter; stroke-miterlimit: 4; fill: rgb(0,0,0); fill-rule: nonzero; opacity: 0.5;" vector-effect="non-scaling-stroke"  transform=" translate(0, 0)" d="M -0.64843 -0.64843 L 0.64843 -0.64843 L 0.64843 0.64843 L -0.64843 0.64843 z" stroke-linecap="round" />
</g>
<g transform="matrix(2.29 0 0 0.78 13.43 6.14)" id="D6pahl3drqtIKy1qJqwRY"  >
<path style="stroke: rgb(144,55,37); stroke-width: 0; stroke-dasharray: none; stroke-linecap: butt; stroke-dashoffset: 0; stroke-linejoin: miter; stroke-miterlimit: 4; fill: rgb(0,0,0); fill-rule: nonzero; opacity: 0.5;" vector-effect="non-scaling-stroke"  transform=" translate(0, 0)" d="M -1.01317 -1.01317 L 1.01317 -1.01317 L 1.01317 1.01317 L -1.01317 1.01317 z" stroke-linecap="round" />
</g>
<g transform="matrix(0 3.55 -2.09 0 3.74 2.58)" id="VtvT7khnptITfdFcL-c6O"  >
<path style="stroke: rgb(136,1,255); stroke-width: 0; stroke-dasharray: none; stroke-linecap: butt; stroke-dashoffset: 0; stroke-linejoin: miter; stroke-miterlimit: 4; fill: rgb(0,0,0); fill-rule: nonzero; opacity: 1;" vector-effect="non-scaling-stroke"  transform=" translate(0, 0)" d="M -0.55687 -0.55687 L 0.55687 -0.55687 L 0.55687 0.55687 L -0.55687 0.55687 z" stroke-linecap="round" />
</g>
<g transform="matrix(0 0.89 -4.36 0 8 2.58)" id="mLrUfmSeosaMVKSBFpdcj"  >
<path style="stroke: rgb(21,122,212); stroke-width: 0; stroke-dasharray: none; stroke-linecap: butt; stroke-dashoffset: 0; stroke-linejoin: miter; stroke-miterlimit: 4; fill: rgb(0,0,0); fill-rule: nonzero; opacity: 1;" vector-effect="non-scaling-stroke"  transform=" translate(0, 0)" d="M -0.53318 -0.53318 L 0.5331699999999999 -0.53318 L 0.5331699999999999 0.5331699999999999 L -0.53318 0.5331699999999999 z" stroke-linecap="round" />
</g>
<g transform="matrix(5.96 0 0 2.43 12.26 2.58)" id="iWJcvF4fGAo6z-lO5q1Nj"  >
<path style="stroke: rgb(169,228,43); stroke-width: 0; stroke-dasharray: none; stroke-linecap: butt; stroke-dashoffset: 0; stroke-linejoin: miter; stroke-miterlimit: 4; fill: rgb(0,0,0); fill-rule: nonzero; opacity: 1;" vector-effect="non-scaling-stroke"  transform=" translate(0, 0)" d="M -0.19509 -0.19509 L 0.19509 -0.19509 L 0.19509 0.19509 L -0.19509 0.19509 z" stroke-linecap="round" />
</g>
<g transform="matrix(1.82 0 0 0.93 8 12)" id="DfzZkBQ727nC3FSJjn-Cv"  >
<path style="stroke: rgb(165,94,46); stroke-width: 0; stroke-dasharray: none; stroke-linecap: butt; stroke-dashoffset: 0; stroke-linejoin: miter; stroke-miterlimit: 4; fill: rgb(0,0,0); fill-rule: nonzero; opacity: 0.5;" vector-effect="non-scaling-stroke"  transform=" translate(0, 0)" d="M -1.2766 -1.2766 L 1.27659 -1.2766 L 1.27659 1.27659 L -1.2766 1.27659 z" stroke-linecap="round" />
</g>
<g transform="matrix(0.03 0 0 0.03 12.26 12)" id="hts6EOPwMvtialy9479TQ"  >
<path style="stroke: none; stroke-width: 1; stroke-dasharray: none; stroke-linecap: butt; stroke-dashoffset: 0; stroke-linejoin: miter; stroke-miterlimit: 4; fill: rgb(0,0,0); fill-rule: nonzero; opacity: 0.5;" vector-effect="non-scaling-stroke"  transform=" translate(0, 0)" d="M -40 -40 L 40 40 L -40 40 z" stroke-linecap="round" />
</g>
<g transform="matrix(0 -0.03 0.03 0 3.74 11.99)" id="c6wqbGWr_GeCsPA0985BV"  >
<path style="stroke: none; stroke-width: 1; stroke-dasharray: none; stroke-linecap: butt; stroke-dashoffset: 0; stroke-linejoin: miter; stroke-miterlimit: 4; fill: rgb(0,0,0); fill-rule: nonzero; opacity: 0.5;" vector-effect="non-scaling-stroke"  transform=" translate(-40, -40)" d="M 0 0 L 80 80 L 0 80 L 0 0 z" stroke-linecap="round" />
</g>
</svg>